#Comment line ignore any data following # character 
#Hierarchical Translation and Rotation (.htr) file 
[Header]	
#Header keywords are followed by a single value 
FileType HTR		#Single word string
DataType HTRS		#Translation followed by rotation and scale data
FileVersion 1		#integer
NumSegments 84		#integer
NumFrames 2		#integer
DataFrameRate 30		#integer, data frame rate in this file
EulerRotationOrder ZYX
CalibrationUnits mm
RotationUnits Degrees
GlobalAxisofGravity Y
BoneLengthAxis Y
ScaleFactor 1.00
[SegmentNames&Hierarchy]
#CHILD	PARENT
MASTER GLOBAL
root MASTER
chest root
L_mid_tent01 root
R_mid_tent01 root
spine01 root
Bip01_Neck chest
L_humerus chest
R_humerus chest
weapon_bone chest
Bip01_Head Bip01_Neck
eye_left_bone Bip01_Head
eye_right_bone Bip01_Head
L_forearm L_humerus
L_front_hand L_forearm
L_weapon_bone L_forearm
L_front_hand01_01 L_front_hand
L_front_hand02_01 L_front_hand
L_front_hand03_01 L_front_hand
L_front_hand01_02 L_front_hand01_01
L_front_hand02_02 L_front_hand02_01
L_front_hand03_02 L_front_hand03_01
R_forearm R_humerus
R_front_hand R_forearm
R_weapon_bone R_forearm
R_front_hand01_01 R_front_hand
R_front_hand02_01 R_front_hand
R_front_hand03_01 R_front_hand
R_front_hand01_02 R_front_hand01_01
R_front_hand02_02 R_front_hand02_01
R_front_hand03_02 R_front_hand03_01
null_rope01_connect L_mid_tent01
Rope1_Seg01 null_rope01_connect
Rope1_Seg02 Rope1_Seg01
Rope1_Seg03 Rope1_Seg02
Rope1_Seg04 Rope1_Seg03
Rope1_Seg05 Rope1_Seg04
Rope1_Seg06 Rope1_Seg05
Rope1_Seg07 Rope1_Seg06
Rope1_Seg09 Rope1_Seg07
L_mid_hand01 Rope1_Seg09
L_mid_hand02 Rope1_Seg09
L_mid_hand03 Rope1_Seg09
null_rope02_connect R_mid_tent01
Rope2_Seg01 null_rope02_connect
Rope2_Seg02 Rope2_Seg01
Rope2_Seg03 Rope2_Seg02
Rope2_Seg04 Rope2_Seg03
Rope2_Seg05 Rope2_Seg04
Rope2_Seg06 Rope2_Seg05
Rope2_Seg07 Rope2_Seg06
Rope2_Seg09 Rope2_Seg07
R_mid_hand01 Rope2_Seg09
R_mid_hand02 Rope2_Seg09
R_mid_hand03 Rope2_Seg09
spine02 spine01
spine03 spine02
pelvis spine03
null_rope03_connect pelvis
null_rope04_connect pelvis
Rope3_Seg01 null_rope03_connect
Rope3_Seg02 Rope3_Seg01
Rope3_Seg03 Rope3_Seg02
Rope3_Seg04 Rope3_Seg03
Rope3_Seg05 Rope3_Seg04
Rope3_Seg06 Rope3_Seg05
Rope3_Seg07 Rope3_Seg06
Rope3_Seg08 Rope3_Seg07
Rope3_Seg09 Rope3_Seg08
R_rear_hand01 Rope3_Seg09
R_rear_hand02 Rope3_Seg09
R_rear_hand03 Rope3_Seg09
Rope4_Seg01 null_rope04_connect
Rope4_Seg02 Rope4_Seg01
Rope4_Seg03 Rope4_Seg02
Rope4_Seg04 Rope4_Seg03
Rope4_Seg05 Rope4_Seg04
Rope4_Seg06 Rope4_Seg05
Rope4_Seg07 Rope4_Seg06
Rope4_Seg08 Rope4_Seg07
Rope4_Seg09 Rope4_Seg08
L_rear_hand01 Rope4_Seg09
L_rear_hand02 Rope4_Seg09
L_rear_hand03 Rope4_Seg09
[BasePosition]
#SegmentName Tx, Ty, Tz, Rx, Ry, Rz, BoneLength
MASTER 0.000000 0.000000 0.000000 -90.000000 0.000000 0.000000 10.000000 
root 0.000000 0.000000 0.000000 0.000000 0.000000 0.000000 10.000000 
chest 0.000000 0.000000 0.000000 0.000000 0.000000 0.000000 10.000000 
L_mid_tent01 0.000000 0.000000 0.000000 0.000000 0.000000 0.000000 10.000000 
R_mid_tent01 0.000000 0.000000 0.000000 0.000000 0.000000 0.000000 10.000000 
spine01 0.000000 0.000000 0.000000 0.000000 0.000000 0.000000 10.000000 
Bip01_Neck 0.000000 0.000000 0.000000 0.000000 0.000000 0.000000 10.000000 
L_humerus 0.000000 0.000000 0.000000 0.000000 0.000000 0.000000 10.000000 
R_humerus 0.000000 0.000000 0.000000 0.000000 0.000000 0.000000 10.000000 
weapon_bone 0.000000 0.000000 0.000000 0.000000 0.000000 0.000000 10.000000 
Bip01_Head 0.000000 0.000000 0.000000 0.000000 0.000000 0.000000 10.000000 
eye_left_bone 0.000000 0.000000 0.000000 0.000000 0.000000 0.000000 10.000000 
eye_right_bone 0.000000 0.000000 0.000000 0.000000 0.000000 0.000000 10.000000 
L_forearm 0.000000 0.000000 0.000000 0.000000 0.000000 0.000000 10.000000 
L_front_hand 0.000000 0.000000 0.000000 0.000000 0.000000 0.000000 10.000000 
L_weapon_bone 0.000000 0.000000 0.000000 0.000000 0.000000 0.000000 10.000000 
L_front_hand01_01 0.000000 0.000000 0.000000 0.000000 0.000000 0.000000 10.000000 
L_front_hand02_01 0.000000 0.000000 0.000000 0.000000 0.000000 0.000000 10.000000 
L_front_hand03_01 0.000000 0.000000 0.000000 0.000000 0.000000 0.000000 10.000000 
L_front_hand01_02 0.000000 0.000000 0.000000 0.000000 0.000000 0.000000 10.000000 
L_front_hand02_02 0.000000 0.000000 0.000000 0.000000 0.000000 0.000000 10.000000 
L_front_hand03_02 0.000000 0.000000 0.000000 0.000000 0.000000 0.000000 10.000000 
R_forearm 0.000000 0.000000 0.000000 0.000000 0.000000 0.000000 10.000000 
R_front_hand 0.000000 0.000000 0.000000 0.000000 0.000000 0.000000 10.000000 
R_weapon_bone 0.000000 0.000000 0.000000 0.000000 0.000000 0.000000 10.000000 
R_front_hand01_01 0.000000 0.000000 0.000000 0.000000 0.000000 0.000000 10.000000 
R_front_hand02_01 0.000000 0.000000 0.000000 0.000000 0.000000 0.000000 10.000000 
R_front_hand03_01 0.000000 0.000000 0.000000 0.000000 0.000000 0.000000 10.000000 
R_front_hand01_02 0.000000 0.000000 0.000000 0.000000 0.000000 0.000000 10.000000 
R_front_hand02_02 0.000000 0.000000 0.000000 0.000000 0.000000 0.000000 10.000000 
R_front_hand03_02 0.000000 0.000000 0.000000 0.000000 0.000000 0.000000 10.000000 
null_rope01_connect 0.000000 0.000000 0.000000 0.000000 0.000000 0.000000 10.000000 
Rope1_Seg01 0.000000 0.000000 0.000000 0.000000 0.000000 0.000000 10.000000 
Rope1_Seg02 0.000000 0.000000 0.000000 0.000000 0.000000 0.000000 10.000000 
Rope1_Seg03 0.000000 0.000000 0.000000 0.000000 0.000000 0.000000 10.000000 
Rope1_Seg04 0.000000 0.000000 0.000000 0.000000 0.000000 0.000000 10.000000 
Rope1_Seg05 0.000000 0.000000 0.000000 0.000000 0.000000 0.000000 10.000000 
Rope1_Seg06 0.000000 0.000000 0.000000 0.000000 0.000000 0.000000 10.000000 
Rope1_Seg07 0.000000 0.000000 0.000000 0.000000 0.000000 0.000000 10.000000 
Rope1_Seg09 0.000000 0.000000 0.000000 0.000000 0.000000 0.000000 10.000000 
L_mid_hand01 0.000000 0.000000 0.000000 0.000000 0.000000 0.000000 10.000000 
L_mid_hand02 0.000000 0.000000 0.000000 0.000000 0.000000 0.000000 10.000000 
L_mid_hand03 0.000000 0.000000 0.000000 0.000000 0.000000 0.000000 10.000000 
null_rope02_connect 0.000000 0.000000 0.000000 0.000000 0.000000 0.000000 10.000000 
Rope2_Seg01 0.000000 0.000000 0.000000 0.000000 0.000000 0.000000 10.000000 
Rope2_Seg02 0.000000 0.000000 0.000000 0.000000 0.000000 0.000000 10.000000 
Rope2_Seg03 0.000000 0.000000 0.000000 0.000000 0.000000 0.000000 10.000000 
Rope2_Seg04 0.000000 0.000000 0.000000 0.000000 0.000000 0.000000 10.000000 
Rope2_Seg05 0.000000 0.000000 0.000000 0.000000 0.000000 0.000000 10.000000 
Rope2_Seg06 0.000000 0.000000 0.000000 0.000000 0.000000 0.000000 10.000000 
Rope2_Seg07 0.000000 0.000000 0.000000 0.000000 0.000000 0.000000 10.000000 
Rope2_Seg09 0.000000 0.000000 0.000000 0.000000 0.000000 0.000000 10.000000 
R_mid_hand01 0.000000 0.000000 0.000000 0.000000 0.000000 0.000000 10.000000 
R_mid_hand02 0.000000 0.000000 0.000000 0.000000 0.000000 0.000000 10.000000 
R_mid_hand03 0.000000 0.000000 0.000000 0.000000 0.000000 0.000000 10.000000 
spine02 0.000000 0.000000 0.000000 0.000000 0.000000 0.000000 10.000000 
spine03 0.000000 0.000000 0.000000 0.000000 0.000000 0.000000 10.000000 
pelvis 0.000000 0.000000 0.000000 0.000000 0.000000 0.000000 10.000000 
null_rope03_connect 0.000000 0.000000 0.000000 0.000000 0.000000 0.000000 10.000000 
null_rope04_connect 0.000000 0.000000 0.000000 0.000000 0.000000 0.000000 10.000000 
Rope3_Seg01 0.000000 0.000000 0.000000 0.000000 0.000000 0.000000 10.000000 
Rope3_Seg02 0.000000 0.000000 0.000000 0.000000 0.000000 0.000000 10.000000 
Rope3_Seg03 0.000000 0.000000 0.000000 0.000000 0.000000 0.000000 10.000000 
Rope3_Seg04 0.000000 0.000000 0.000000 0.000000 0.000000 0.000000 10.000000 
Rope3_Seg05 0.000000 0.000000 0.000000 0.000000 0.000000 0.000000 10.000000 
Rope3_Seg06 0.000000 0.000000 0.000000 0.000000 0.000000 0.000000 10.000000 
Rope3_Seg07 0.000000 0.000000 0.000000 0.000000 0.000000 0.000000 10.000000 
Rope3_Seg08 0.000000 0.000000 0.000000 0.000000 0.000000 0.000000 10.000000 
Rope3_Seg09 0.000000 0.000000 0.000000 0.000000 0.000000 0.000000 10.000000 
R_rear_hand01 0.000000 0.000000 0.000000 0.000000 0.000000 0.000000 10.000000 
R_rear_hand02 0.000000 0.000000 0.000000 0.000000 0.000000 0.000000 10.000000 
R_rear_hand03 0.000000 0.000000 0.000000 0.000000 0.000000 0.000000 10.000000 
Rope4_Seg01 0.000000 0.000000 0.000000 0.000000 0.000000 0.000000 10.000000 
Rope4_Seg02 0.000000 0.000000 0.000000 0.000000 0.000000 0.000000 10.000000 
Rope4_Seg03 0.000000 0.000000 0.000000 0.000000 0.000000 0.000000 10.000000 
Rope4_Seg04 0.000000 0.000000 0.000000 0.000000 0.000000 0.000000 10.000000 
Rope4_Seg05 0.000000 0.000000 0.000000 0.000000 0.000000 0.000000 10.000000 
Rope4_Seg06 0.000000 0.000000 0.000000 0.000000 0.000000 0.000000 10.000000 
Rope4_Seg07 0.000000 0.000000 0.000000 0.000000 0.000000 0.000000 10.000000 
Rope4_Seg08 0.000000 0.000000 0.000000 0.000000 0.000000 0.000000 10.000000 
Rope4_Seg09 0.000000 0.000000 0.000000 0.000000 0.000000 0.000000 10.000000 
L_rear_hand01 0.000000 0.000000 0.000000 0.000000 0.000000 0.000000 10.000000 
L_rear_hand02 0.000000 0.000000 0.000000 0.000000 0.000000 0.000000 10.000000 
L_rear_hand03 0.000000 0.000000 0.000000 0.000000 0.000000 0.000000 10.000000 
#Beginning of Data. Separated by tabs
#Fr	Tx	Ty	Tz	Rx	Ry	Rz	SF
[MASTER]
46 0.000000 0.000000 0.000000 0.001660 0.001660 0.001660 0.000000
47 0.000000 0.000000 0.000000 0.001660 0.001660 0.001660 0.000000
[root]
46 -23.115313 -62.822117 1370.694458 -87.405876 -8.437917 -93.088295 1372.328125
47 -23.994921 -62.822117 1372.093262 -87.217010 -8.572245 -92.999825 1373.740356
[chest]
46 -84.512650 -34.090519 0.000000 -0.307809 -0.743092 156.385437 91.129311
47 -84.512650 -34.090519 0.000000 -0.307809 -0.743092 156.385437 91.129311
[L_mid_tent01]
46 23.228750 24.509907 -223.761200 -15.018641 10.069905 -14.699244 226.294907
47 23.228750 24.509907 -223.761200 -14.710336 10.338996 -12.861384 226.294907
[R_mid_tent01]
46 23.228794 24.509907 226.238495 -157.184952 -5.404940 -14.092879 228.744751
47 23.228794 24.509907 226.238495 -158.260513 -4.746027 -14.276811 228.744751
[spine01]
46 -0.361383 -0.195265 0.000000 0.001815 0.001488 11.320962 0.410763
47 -0.361383 -0.195265 0.000000 0.001815 0.001488 11.320962 0.410763
[Bip01_Neck]
46 165.484543 71.581718 0.000119 175.896118 1.177290 24.871183 180.302734
47 165.484543 71.581718 0.000119 175.896118 1.177290 24.871183 180.302734
[L_humerus]
46 -13.983130 -135.272980 -120.471481 149.628754 9.923236 -156.213867 181.680161
47 -13.983130 -135.272980 -120.471481 149.628754 9.923236 -156.213867 181.680161
[R_humerus]
46 -13.983309 -135.273102 125.287651 -156.699188 -11.743878 -154.898071 184.909012
47 -13.983309 -135.273102 125.287651 -156.699188 -11.743878 -154.898071 184.909012
[weapon_bone]
46 235.964890 -300.705902 0.000000 0.000000 -89.951546 -128.212341 382.234833
47 235.964890 -300.705902 0.000000 0.000000 -89.951546 -128.212341 382.234833
[Bip01_Head]
46 179.663727 77.988930 -1.800942 8.440479 6.303013 -40.569065 195.868774
47 179.663727 77.988930 -1.800943 8.481997 6.776206 -40.489727 195.868774
[eye_left_bone]
46 -24.626970 125.451866 -64.772606 0.000000 -90.000000 -99.840431 143.318359
47 -24.626970 125.451866 -64.772606 0.000000 -90.000000 -99.840431 143.318359
[eye_right_bone]
46 -24.626970 125.451866 64.327362 0.000000 -89.965736 80.156380 143.117676
47 -24.626970 125.451866 64.327362 0.000000 -89.965736 80.156380 143.117676
[L_forearm]
46 322.776093 0.000000 -0.000119 0.000842 -0.002191 -132.067245 322.776093
47 322.776093 0.000000 -0.000119 0.000842 -0.002191 -132.067261 322.776093
[L_front_hand]
46 241.149185 -0.042021 -3.300071 73.190750 -1.505154 -39.930138 241.171753
47 241.149185 -0.042021 -3.300071 73.872330 -1.504876 -39.933376 241.171753
[L_weapon_bone]
46 156.183838 0.000000 0.000000 0.000014 0.000007 0.000001 156.183838
47 156.183838 0.000000 0.000000 0.000014 0.000007 0.000001 156.183838
[L_front_hand01_01]
46 86.095154 20.947098 -0.655860 -0.357600 -0.483973 74.177933 88.609184
47 86.095154 20.947098 -0.655860 -0.327695 -0.505347 70.944565 88.609184
[L_front_hand02_01]
46 86.935165 -11.437475 24.513514 152.552643 -59.346100 -59.226601 91.046425
47 86.935165 -11.437475 24.513514 147.963821 -57.743813 -53.850647 91.046425
[L_front_hand03_01]
46 86.637497 -14.123976 -20.424902 -152.202271 57.569389 -60.682831 90.126129
47 86.637497 -14.123976 -20.424902 -147.927429 55.957085 -55.568600 90.126129
[L_front_hand01_02]
46 71.020905 -0.000179 0.000030 0.000338 0.002336 -73.550575 71.020905
47 71.020905 -0.000179 0.000030 0.000578 0.002275 -61.494312 71.020905
[L_front_hand02_02]
46 71.020927 -0.000119 0.000060 0.000338 0.002336 -73.550575 71.020927
47 71.020927 -0.000119 0.000060 0.000578 0.002275 -61.494312 71.020927
[L_front_hand03_02]
46 71.020905 -0.000060 0.000060 0.000338 0.002336 -73.550575 71.020905
47 71.020905 -0.000060 0.000060 0.000578 0.002275 -61.494312 71.020905
[R_forearm]
46 322.776428 -0.000060 0.000030 0.244684 0.084396 -126.001297 322.776428
47 322.776428 -0.000060 0.000030 0.244684 0.084396 -126.001297 322.776428
[R_front_hand]
46 238.847015 -0.006795 2.210259 34.135223 0.237228 -48.452351 238.857239
47 238.847015 -0.006795 2.210259 34.135395 0.237229 -48.452354 238.857239
[R_weapon_bone]
46 155.664093 0.002503 -0.000030 0.003487 0.001180 -90.988930 155.664078
47 155.664093 0.002503 -0.000030 0.003487 0.001180 -90.988930 155.664078
[R_front_hand01_01]
46 87.624611 14.231146 22.918642 -128.570358 -43.463165 29.201239 91.683487
47 87.624611 14.231146 22.918642 -135.319168 -50.472656 38.406818 91.683487
[R_front_hand02_01]
46 89.356956 14.367283 -19.491137 129.740219 42.060112 32.027451 92.579636
47 89.356956 14.367283 -19.491137 136.287369 48.951813 41.178764 92.579636
[R_front_hand03_01]
46 87.286232 -22.307278 -0.143439 -0.036434 -0.450813 -50.170204 90.091743
47 87.286232 -22.307278 -0.143439 0.037128 -0.449817 -59.570854 90.091743
[R_front_hand01_02]
46 71.020905 0.000060 0.000119 0.002347 -0.000008 90.372391 71.020905
47 71.020905 0.000060 0.000119 0.002343 0.000140 83.154831 71.020905
[R_front_hand02_02]
46 71.020844 -0.000030 -0.000119 0.002347 -0.000008 90.372391 71.020836
47 71.020844 -0.000030 -0.000119 0.002343 0.000140 83.154831 71.020836
[R_front_hand03_02]
46 71.020905 0.000000 0.000030 0.002347 -0.000008 90.372391 71.020905
47 71.020905 0.000000 0.000030 0.002343 0.000140 83.154831 71.020905
[null_rope01_connect]
46 328.732483 0.000000 -0.000238 -113.146584 -70.818214 -135.560104 328.732483
47 328.732483 0.000000 -0.000238 -113.112953 -71.129623 -137.305984 328.732483
[Rope1_Seg01]
46 0.000000 0.000000 0.000000 67.481155 -31.043705 -137.953369 0.000000
47 0.000000 0.000000 0.000000 75.133835 -28.206911 -144.945450 0.000000
[Rope1_Seg02]
46 139.999863 -0.000179 0.000000 -9.709046 14.245937 9.314162 139.999863
47 139.999863 -0.000179 0.000000 -8.707471 12.651221 7.580751 139.999863
[Rope1_Seg03]
46 139.999924 0.000060 -0.000060 -11.113044 15.493642 20.584911 139.999924
47 139.999924 0.000060 -0.000060 -11.602000 15.577713 15.677799 139.999924
[Rope1_Seg04]
46 139.999924 -0.000060 -0.000119 -5.431112 7.736205 25.397753 139.999924
47 139.999924 -0.000060 -0.000119 -7.702309 9.369911 27.446077 139.999924
[Rope1_Seg05]
46 139.999832 0.000119 -0.000060 -2.197204 13.776526 -13.938479 139.999832
47 139.999832 0.000119 -0.000060 -3.558127 13.921056 -1.115830 139.999832
[Rope1_Seg06]
46 139.999954 0.000119 -0.000060 2.637042 13.021602 -22.101257 139.999954
47 139.999954 0.000119 -0.000060 -3.671827 14.506441 -12.424060 139.999954
[Rope1_Seg07]
46 139.999985 0.000060 0.000000 1.522336 4.382342 -6.373179 139.999985
47 139.999985 0.000060 0.000000 -2.903791 6.079619 -3.021391 139.999985
[Rope1_Seg09]
46 121.602913 0.000119 -0.000089 -89.793175 -1.359789 0.847147 121.602913
47 121.602913 0.000119 -0.000089 -89.793175 -1.359789 0.847147 121.602913
[L_mid_hand01]
46 103.859421 1.038730 8.195221 106.855484 -31.239275 -9.461397 104.187431
47 103.859421 1.038730 8.195221 106.855484 -31.239275 -9.461397 104.187431
[L_mid_hand02]
46 105.572853 -4.139662 -10.864139 -142.331345 25.752670 -28.774628 106.211075
47 105.572853 -4.139662 -10.864139 -142.331345 25.752670 -28.774628 106.211075
[L_mid_hand03]
46 104.641464 17.579376 -3.913581 -16.122810 9.734291 34.223598 106.179977
47 104.641464 17.579376 -3.913581 -16.122810 9.734291 34.223598 106.179977
[null_rope02_connect]
46 328.732849 0.000179 -0.000119 -153.041290 65.782478 -85.315399 328.732849
47 328.732849 0.000179 -0.000119 -154.003342 66.697334 -86.741241 328.732849
[Rope2_Seg01]
46 0.000124 0.000105 -0.000038 98.622925 -34.786213 -132.644226 0.000167
47 0.000123 0.000106 -0.000036 102.412857 -34.077549 -140.283051 0.000166
[Rope2_Seg02]
46 139.999741 -0.000060 -0.000119 -0.435687 20.090633 -2.978934 139.999756
47 139.999741 -0.000060 -0.000119 0.045922 17.993189 -3.421550 139.999756
[Rope2_Seg03]
46 140.000107 0.000030 0.000000 -3.508862 23.481209 -2.279273 140.000107
47 140.000107 0.000030 0.000000 -2.662744 25.045856 -4.847512 140.000107
[Rope2_Seg04]
46 139.999802 0.000000 -0.000060 -8.223329 19.774761 0.694965 139.999802
47 139.999802 0.000000 -0.000060 -8.626780 26.190001 -3.001423 139.999802
[Rope2_Seg05]
46 139.999985 -0.000060 0.000119 3.408107 2.073564 -4.069701 139.999985
47 139.999985 -0.000060 0.000119 -1.105582 5.719333 -1.841347 139.999985
[Rope2_Seg06]
46 139.999893 -0.000030 -0.000119 13.690325 -8.019603 -9.298652 139.999893
47 139.999893 -0.000030 -0.000119 8.201231 -5.658385 -4.063723 139.999893
[Rope2_Seg07]
46 139.999893 0.000060 -0.000060 6.927646 -5.226707 -5.182026 139.999893
47 139.999893 0.000060 -0.000060 4.424804 -3.369716 -2.446032 139.999893
[Rope2_Seg09]
46 121.338966 0.000089 -0.000060 33.793236 -1.359788 -0.847141 121.338966
47 121.338966 0.000089 -0.000060 33.793236 -1.359788 -0.847141 121.338966
[R_mid_hand01]
46 104.680779 11.144459 -10.335981 -41.523792 25.424656 28.595957 105.778534
47 104.680779 11.144459 -10.335981 -41.523792 25.424656 28.595957 105.778534
[R_mid_hand02]
46 104.070427 2.443552 8.231699 72.847389 -32.746803 10.013901 104.424065
47 104.070427 2.443552 8.231699 72.847389 -32.746803 10.013901 104.424065
[R_mid_hand03]
46 106.028137 -11.221827 -5.996406 -167.901306 10.259192 -37.009720 106.788818
47 106.028137 -11.221827 -5.996406 -167.901306 10.259192 -37.009720 106.788818
[spine02]
46 129.756927 0.001550 0.000119 0.001147 -1.797837 -7.854275 129.756927
47 129.756927 0.001550 0.000119 0.001147 -1.797837 -7.854275 129.756927
[spine03]
46 79.115631 0.000000 -0.000119 1.459971 -2.848092 23.765963 79.115631
47 79.115631 0.000000 -0.000119 1.459971 -2.848092 23.765963 79.115631
[pelvis]
46 169.435242 0.051022 0.000000 -0.000005 0.000003 -4.322055 169.435257
47 169.435242 0.051022 0.000000 -0.000005 0.000003 -4.322055 169.435257
[null_rope03_connect]
46 -1.257226 -2.466202 137.391083 16.738756 -85.061760 58.923088 137.418976
47 -1.257226 -2.466202 137.391083 17.505608 -84.850830 58.300945 137.418976
[null_rope04_connect]
46 -1.259640 -2.480268 -137.844437 16.738756 -85.061760 58.923088 137.872513
47 -1.259640 -2.480268 -137.844437 17.505608 -84.850830 58.300945 137.872513
[Rope3_Seg01]
46 0.000000 0.000000 0.000000 -134.224609 -12.303148 -57.321648 0.000000
47 0.000000 0.000000 0.000000 -133.662491 -15.958450 -67.405861 0.000000
[Rope3_Seg02]
46 139.999924 -0.000119 0.000060 0.432421 1.491637 3.816519 139.999924
47 139.999924 -0.000119 0.000060 0.674202 -1.293080 3.100579 139.999924
[Rope3_Seg03]
46 139.999924 -0.000119 0.000119 0.447710 1.962596 4.937517 139.999924
47 139.999924 -0.000119 0.000119 0.662928 -1.539683 3.821838 139.999924
[Rope3_Seg04]
46 139.999924 0.000119 0.000000 0.417875 2.449518 6.712457 139.999924
47 139.999924 0.000119 0.000000 0.593171 -2.583495 4.946741 139.999924
[Rope3_Seg05]
46 139.999924 -0.000238 0.000060 0.338488 0.547591 12.153065 139.999924
47 139.999924 -0.000238 0.000060 0.749686 -7.974150 7.505617 139.999924
[Rope3_Seg06]
46 139.999893 -0.000119 -0.000060 1.138846 7.050904 9.000419 139.999893
47 139.999893 -0.000119 -0.000060 0.595901 2.748399 6.178174 139.999893
[Rope3_Seg07]
46 139.999771 0.000060 -0.000119 4.795351 14.557029 -0.658032 139.999771
47 139.999771 0.000060 -0.000119 2.838050 18.346006 2.574920 139.999771
[Rope3_Seg08]
46 139.999985 -0.000060 0.000000 4.212536 9.218623 -0.587044 139.999985
47 139.999985 -0.000060 0.000000 3.616011 11.885151 1.895553 139.999985
[Rope3_Seg09]
46 90.185997 -0.000179 -0.000060 89.793228 -1.359877 -0.847183 90.185997
47 90.185997 -0.000179 -0.000060 89.793228 -1.359877 -0.847183 90.185997
[R_rear_hand01]
46 103.366196 -6.073594 -10.757982 -161.551193 16.666374 -30.088671 104.101845
47 103.366196 -6.073594 -10.757982 -161.551193 16.666374 -30.088671 104.101845
[R_rear_hand02]
46 100.509819 12.039542 -7.992327 -34.280552 19.289745 28.875523 101.543350
47 100.509819 12.039542 -7.992327 -34.280552 19.289745 28.875523 101.543350
[R_rear_hand03]
46 101.539970 5.215704 5.435467 83.366440 -30.933914 7.284830 101.819031
47 101.539970 5.215704 5.435467 83.366440 -30.933914 7.284830 101.819031
[Rope4_Seg01]
46 0.000000 0.000000 0.000000 14.769048 -32.508465 -49.490177 0.000000
47 0.000000 0.000000 0.000000 29.648312 -43.735550 -71.618454 0.000000
[Rope4_Seg02]
46 139.999985 0.000060 0.000119 8.280181 5.149429 -17.025047 139.999985
47 139.999985 0.000060 0.000119 2.254266 12.645149 -11.915025 139.999985
[Rope4_Seg03]
46 139.999924 0.000000 -0.000238 6.007705 2.574488 -16.311558 139.999924
47 139.999924 0.000000 -0.000238 3.549429 10.891036 -10.981132 139.999924
[Rope4_Seg04]
46 139.999985 0.000000 0.000119 4.240220 4.305490 -14.783462 139.999985
47 139.999985 0.000000 0.000119 5.031237 12.999164 -9.427223 139.999985
[Rope4_Seg05]
46 139.999802 -0.000060 -0.000119 1.497235 -1.136993 -6.897713 139.999802
47 139.999802 -0.000060 -0.000119 2.711961 2.349564 -5.244040 139.999802
[Rope4_Seg06]
46 139.999924 0.000000 0.000060 0.071820 -6.257441 -2.008355 139.999924
47 139.999924 0.000000 0.000060 0.070550 -6.322219 -2.682170 139.999924
[Rope4_Seg07]
46 139.999802 0.000000 0.000000 0.062029 -11.785665 0.860402 139.999802
47 139.999802 0.000000 0.000000 -0.702669 -15.707956 -1.698797 139.999802
[Rope4_Seg08]
46 139.999924 0.000000 0.000119 -0.979005 -7.568439 -0.835698 139.999924
47 139.999924 0.000000 0.000119 -1.188116 -9.732581 -2.528239 139.999924
[Rope4_Seg09]
46 90.185791 0.000060 0.000060 -135.617828 2.228885 0.850567 90.185791
47 90.185791 0.000060 0.000060 -135.617828 2.228885 0.850567 90.185791
[L_rear_hand01]
46 101.696655 -8.392275 -7.654577 -34.454281 -18.946800 151.655121 102.329041
47 101.696655 -8.392275 -7.654577 -34.454281 -18.946800 151.655121 102.329041
[L_rear_hand02]
46 102.726799 -1.568258 5.773216 83.407906 30.330435 172.796509 102.900848
47 102.726799 -1.568258 5.773216 83.407906 30.330435 172.796509 102.900848
[L_rear_hand03]
46 104.552910 9.721220 -10.420293 -161.379868 -16.473232 -150.512238 105.519653
47 104.552910 9.721220 -10.420293 -161.379868 -16.473232 -150.512238 105.519653
